<svg xmlns="http://www.w3.org/2000/svg" xmlns:xlink="http://www.w3.org/1999/xlink" version="1.1" width="1000" height="1000" viewBox="0 0 1000 1000" xml:space="preserve">
<desc>Created with Fabric.js 3.5.0</desc>
<defs>
</defs>
<rect x="0" y="0" width="100%" height="100%" fill="rgba(255,255,255,0)"/>
<g transform="matrix(2.2264 0 0 2.2264 499.9911 499.9911)" id="734946">
<g style="" vector-effect="non-scaling-stroke">
		<g transform="matrix(1 0 0 1 0 -112)" id="Layer_1">
<filter id="SVGID_2167" y="-70%" height="240%" x="-29.09%" width="158.18%">
	<feGaussianBlur in="SourceAlpha" stdDeviation="11"/>
	<feOffset dx="10" dy="10" result="oBlur"/>
	<feFlood flood-color="rgb(0,0,0)" flood-opacity="0.72"/>
	<feComposite in2="oBlur" operator="in"/>
	<feMerge>
		<feMergeNode/>
		<feMergeNode in="SourceGraphic"/>
	</feMerge>
</filter>
<polyline style="stroke: none; stroke-width: 1; stroke-dasharray: none; stroke-linecap: butt; stroke-dashoffset: 0; stroke-linejoin: miter; stroke-miterlimit: 4; is-custom-font: none; font-file-url: none; fill: none; fill-rule: nonzero; opacity: 1;filter: url(#SVGID_2167);" points="-176,-32 -176,32 176,32 176,-32 "/>
</g>
		<g transform="matrix(1 0 0 1 0 0)" id="Layer_1">
<filter id="SVGID_2168" y="-28.33%" height="156.66%" x="-28.33%" width="156.66%">
	<feGaussianBlur in="SourceAlpha" stdDeviation="11"/>
	<feOffset dx="10" dy="10" result="oBlur"/>
	<feFlood flood-color="rgb(0,0,0)" flood-opacity="0.72"/>
	<feComposite in2="oBlur" operator="in"/>
	<feMerge>
		<feMergeNode/>
		<feMergeNode in="SourceGraphic"/>
	</feMerge>
</filter>
<path style="stroke: none; stroke-width: 1; stroke-dasharray: none; stroke-linecap: butt; stroke-dashoffset: 0; stroke-linejoin: miter; stroke-miterlimit: 4; is-custom-font: none; font-file-url: none; fill: rgb(0,0,0); fill-rule: nonzero; opacity: 1;filter: url(#SVGID_2168);" transform=" translate(-256, -256)" d="M 352 96 V 64 h -16 v 32 H 176 V 64 h -16 v 32 H 64 v 352 h 384 V 96 H 352 z M 432 432 H 80 V 192 h 352 V 432 z M 432 176 H 80 v -64 h 80 v 32 h 16 v -32 h 160 v 32 h 16 v -32 h 80 V 176 z" stroke-linecap="round"/>
</g>
</g>
</g>
<g transform="matrix(0.4491 0 0 0.4491 499.9823 628.5836)" id="379818">
<g style="" vector-effect="non-scaling-stroke">
		<g transform="matrix(21.4283 0 0 21.4283 -224.184 247.4666)" id="774293">
<filter id="SVGID_2169" y="-4784.929999999999%" height="9669.859999999999%" x="-5339.82%" width="10779.64%">
	<feGaussianBlur in="SourceAlpha" stdDeviation="37"/>
	<feOffset dx="10" dy="1" result="oBlur"/>
	<feFlood flood-color="rgb(102,18,18)" flood-opacity="0.52"/>
	<feComposite in2="oBlur" operator="in"/>
	<feMerge>
		<feMergeNode/>
		<feMergeNode in="SourceGraphic"/>
	</feMerge>
</filter>
<path style="stroke: none; stroke-width: 1; stroke-dasharray: none; stroke-linecap: butt; stroke-dashoffset: 0; stroke-linejoin: miter; stroke-miterlimit: 4; is-custom-font: none; font-file-url: none; fill: rgb(132,22,23); fill-rule: nonzero; opacity: 1;filter: url(#SVGID_2169);" transform=" translate(-7.6095, -36.577)" d="m 8.172 36.577 c 0 0.362 -0.258 0.605 -0.562 0.605 V 37.18 c -0.312 0.002 -0.563 -0.241 -0.563 -0.604 c 0 -0.361 0.251 -0.603 0.563 -0.603 c 0.305 0.002 0.562 0.243 0.562 0.604 m 0.227 0 c 0 -0.497 -0.372 -0.787 -0.789 -0.787 c -0.418 0 -0.79 0.29 -0.79 0.787 c 0 0.497 0.372 0.787 0.79 0.787 c 0.417 0 0.789 -0.29 0.789 -0.787 m -0.92 0.067 H 7.565 L 7.761 37 H 7.976 L 7.759 36.63 c 0.112 -0.009 0.204 -0.064 0.204 -0.222 c 0 -0.192 -0.129 -0.255 -0.347 -0.255 H 7.298 V 37 h 0.181 v -0.356 z m 0 -0.144 v -0.203 h 0.127 c 0.069 0 0.162 0.007 0.162 0.094 c 0 0.093 -0.048 0.109 -0.129 0.109 h -0.16 z" stroke-linecap="round"/>
</g>
		<g transform="matrix(21.4283 0 0 21.4283 -95.7534 -156.4878)" id="564676">
<filter id="SVGID_2170" y="-240.63000000000002%" height="581.26%" x="-353.89000000000004%" width="807.7800000000001%">
	<feGaussianBlur in="SourceAlpha" stdDeviation="37"/>
	<feOffset dx="10" dy="1" result="oBlur"/>
	<feFlood flood-color="rgb(102,18,18)" flood-opacity="0.52"/>
	<feComposite in2="oBlur" operator="in"/>
	<feMerge>
		<feMergeNode/>
		<feMergeNode in="SourceGraphic"/>
	</feMerge>
</filter>
<path style="stroke: none; stroke-width: 1; stroke-dasharray: none; stroke-linecap: butt; stroke-dashoffset: 0; stroke-linejoin: miter; stroke-miterlimit: 4; is-custom-font: none; font-file-url: none; fill: rgb(132,22,23); fill-rule: nonzero; opacity: 1;filter: url(#SVGID_2170);" transform=" translate(-13.603, -17.7255)" d="m 7.45 9.589 v 16.316 l 1.67 1.692 h 9.273 L 19.76 25.894 V 9.589 L 18.393 7.849 H 9.12 l -1.67 1.74 z m 0 -8.86 h 12.306 l 6.426 7.115 v 19.754 l -6.426 7.124 H 7.45 L 1.024 27.598 V 7.849 L 7.45 0.729 z" stroke-linecap="round"/>
</g>
		<g transform="matrix(21.4283 0 0 21.4283 102.1902 154.9077)" id="518257">
<filter id="SVGID_2171" y="-263.82000000000005%" height="627.6400000000001%" x="-363.04%" width="826.08%">
	<feGaussianBlur in="SourceAlpha" stdDeviation="37"/>
	<feOffset dx="10" dy="1" result="oBlur"/>
	<feFlood flood-color="rgb(102,18,18)" flood-opacity="0.52"/>
	<feComposite in2="oBlur" operator="in"/>
	<feMerge>
		<feMergeNode/>
		<feMergeNode in="SourceGraphic"/>
	</feMerge>
</filter>
<polygon style="stroke: none; stroke-width: 1; stroke-dasharray: none; stroke-linecap: butt; stroke-dashoffset: 0; stroke-linejoin: miter; stroke-miterlimit: 4; is-custom-font: none; font-file-url: none; fill: rgb(132,22,23); fill-rule: nonzero; opacity: 1;filter: url(#SVGID_2171);" points="5.8215,6.5545 5.8215,-15.3745 12.2435,-15.3805 12.2435,8.2565 5.8175,15.3805 -5.8195,15.3805 -12.2435,8.2565 -12.2435,-15.3745 -5.8195,-15.3745 -5.8195,6.5635 -4.1495,8.2565 4.4545,8.2565 "/>
</g>
</g>
</g>
</svg>